<svg width="25" height="26" viewBox="0 0 25 26" fill="none" xmlns="http://www.w3.org/2000/svg">
<path d="M25 13C25 15.4723 24.2668 17.8891 22.8933 19.9448C21.5197 22.0004 19.5673 23.6026 17.2832 24.5486C14.999 25.4947 12.4856 25.7421 10.0608 25.2597C7.63599 24.7773 5.4087 23.5866 3.66061 21.8383C1.91252 20.09 0.722134 17.8625 0.239997 15.4377C-0.24214 13.0128 0.00562722 10.4994 0.951964 8.21536C1.8983 5.93131 3.5007 3.97919 5.55652 2.60586C7.61235 1.23253 10.0292 0.499688 12.5016 0.5C14.143 0.5 15.7684 0.823334 17.2849 1.45154C18.8014 2.07974 20.1792 3.00051 21.3399 4.16126C22.5005 5.32201 23.4211 6.70002 24.0491 8.21658C24.6771 9.73314 25.0002 11.3585 25 13ZM20.3297 13.0158C20.3297 12.6841 20.1979 12.3661 19.9634 12.1316C19.7289 11.8971 19.4108 11.7653 19.0792 11.7653H13.7394V6.42712C13.7454 6.25927 13.7175 6.09194 13.6574 5.93511C13.5973 5.77829 13.5062 5.63517 13.3895 5.51432C13.2729 5.39347 13.1331 5.29735 12.9785 5.2317C12.8239 5.16605 12.6577 5.13222 12.4897 5.13222C12.3218 5.13222 12.1556 5.16605 12.001 5.2317C11.8464 5.29735 11.7066 5.39347 11.59 5.51432C11.4733 5.63517 11.3822 5.77829 11.3221 5.93511C11.262 6.09194 11.2341 6.25927 11.2401 6.42712V11.7637H5.90186C5.57021 11.7637 5.25215 11.8955 5.01764 12.13C4.78313 12.3645 4.65139 12.6826 4.65139 13.0142C4.65139 13.3459 4.78313 13.6639 5.01764 13.8984C5.25215 14.1329 5.57021 14.2647 5.90186 14.2647H11.2385V19.6045C11.25 19.9282 11.3867 20.2349 11.6198 20.4598C11.8529 20.6848 12.1642 20.8105 12.4882 20.8105C12.8121 20.8105 13.1234 20.6848 13.3565 20.4598C13.5896 20.2349 13.7263 19.9282 13.7378 19.6045V14.2647H19.0776C19.409 14.2647 19.7268 14.1332 19.9613 13.899C20.1957 13.6648 20.3277 13.3472 20.3281 13.0158H20.3297Z" fill="#B9A179"/>
</svg>
