<svg width="30" height="30" viewBox="0 0 30 30" fill="none" xmlns="http://www.w3.org/2000/svg">
<path fill-rule="evenodd" clip-rule="evenodd" d="M30 15C30 23.2843 23.2843 30 15 30C6.71573 30 0 23.2843 0 15C0 6.71573 6.71573 0 15 0C23.2843 0 30 6.71573 30 15ZM15 26.4C14.3453 26.4 13.7286 26.0688 13.2921 25.4917L11.8688 23.5993C11.8404 23.5614 11.7265 23.5141 11.6791 23.5046H11.2047C7.248 23.5046 4.8 22.4354 4.8 17.1178V12.3868C4.8 8.20464 7.01079 6 11.2047 6H18.7953C22.9892 6 25.2 8.20464 25.2 12.3868V17.1178C25.2 21.3 22.9892 23.5046 18.7953 23.5046H18.3209C18.245 23.5046 18.1786 23.5425 18.1312 23.5993L16.7079 25.4917C16.2714 26.0688 15.6547 26.4 15 26.4ZM11.2047 7.41929C7.80781 7.41929 6.22326 8.99944 6.22326 12.3868V17.1178C6.22326 21.3946 7.69395 22.0853 11.2047 22.0853H11.6791C12.163 22.0853 12.7133 22.3597 13.0074 22.7477L14.4307 24.6401C14.7628 25.0753 15.2372 25.0753 15.5693 24.6401L16.9926 22.7477C17.3057 22.3314 17.7991 22.0853 18.3209 22.0853H18.7953C22.1922 22.0853 23.7767 20.5052 23.7767 17.1178V12.3868C23.7767 8.99944 22.1922 7.41929 18.7953 7.41929H11.2047ZM14.0511 15.2254C14.0511 15.7458 14.4685 16.1716 14.9999 16.1716C15.5312 16.1716 15.9487 15.7458 15.9487 15.2254C15.9487 14.705 15.5218 14.2792 14.9999 14.2792C14.478 14.2792 14.0511 14.705 14.0511 15.2254ZM18.7953 16.1716C18.264 16.1716 17.8465 15.7458 17.8465 15.2254C17.8465 14.705 18.2735 14.2792 18.7953 14.2792C19.3172 14.2792 19.7442 14.705 19.7442 15.2254C19.7442 15.7458 19.3267 16.1716 18.7953 16.1716ZM10.2558 15.2254C10.2558 15.7458 10.6733 16.1716 11.2046 16.1716C11.736 16.1716 12.1534 15.7458 12.1534 15.2254C12.1534 14.705 11.7265 14.2792 11.2046 14.2792C10.6827 14.2792 10.2558 14.705 10.2558 15.2254Z" fill="#B9A179"/>
</svg>
