<svg width="25" height="26" viewBox="0 0 25 26" fill="none" xmlns="http://www.w3.org/2000/svg">
<g clip-path="url(#clip0_110_245)">
<path d="M17.1875 0.5C12.8062 0.5 9.375 2.55937 9.375 5.1875V7.88229C8.87083 7.82292 8.34896 7.79167 7.8125 7.79167C3.43125 7.79167 0 9.85104 0 12.4792V20.8125C0 23.4406 3.43125 25.5 7.8125 25.5C11.3708 25.5 14.3031 24.1417 15.2781 22.2229C15.9 22.3135 16.5354 22.375 17.1875 22.375C21.5687 22.375 25 20.3156 25 17.6875V5.1875C25 2.55937 21.5687 0.5 17.1875 0.5ZM17.1875 2.58333C20.4667 2.58333 22.9167 3.95833 22.9167 5.1875C22.9167 6.41667 20.4667 7.79167 17.1875 7.79167C13.9083 7.79167 11.4583 6.41667 11.4583 5.1875C11.4583 3.95833 13.9083 2.58333 17.1875 2.58333ZM7.8125 9.875C11.0917 9.875 13.5417 11.25 13.5417 12.4792C13.5417 13.7083 11.0917 15.0833 7.8125 15.0833C4.53333 15.0833 2.08333 13.7083 2.08333 12.4792C2.08333 11.25 4.53333 9.875 7.8125 9.875ZM2.08333 15.6896C3.5 16.601 5.52396 17.1667 7.8125 17.1667C10.101 17.1667 12.125 16.601 13.5417 15.6896V16.6458C13.5417 17.875 11.0917 19.25 7.8125 19.25C4.53333 19.25 2.08333 17.875 2.08333 16.6458V15.6896ZM7.8125 23.4167C4.53333 23.4167 2.08333 22.0417 2.08333 20.8125V19.8563C3.5 20.7677 5.52396 21.3333 7.8125 21.3333C10.101 21.3333 12.125 20.7677 13.5417 19.8563V20.8125C13.5417 22.0417 11.0917 23.4167 7.8125 23.4167ZM17.1875 20.2917C16.6521 20.2917 16.1333 20.2427 15.625 20.1708V18.1083C16.1375 18.1687 16.6562 18.2083 17.1875 18.2083C19.476 18.2083 21.5 17.6427 22.9167 16.7312V17.6875C22.9167 18.9167 20.4667 20.2917 17.1875 20.2917ZM17.1875 16.125C16.6521 16.125 16.1333 16.076 15.625 16.0042V13.9417C16.1375 14.0021 16.6562 14.0417 17.1875 14.0417C19.476 14.0417 21.5 13.476 22.9167 12.5646V13.5208C22.9167 14.75 20.4667 16.125 17.1875 16.125ZM17.1875 11.9583C16.6229 11.9583 16.0771 11.9052 15.5437 11.826C15.3375 10.9021 14.701 10.0719 13.751 9.40833C14.7844 9.70521 15.9448 9.87604 17.1875 9.87604C19.476 9.87604 21.5 9.31042 22.9167 8.39896V9.35521C22.9167 10.5844 20.4667 11.9594 17.1875 11.9594V11.9583Z" fill="#B9A179"/>
</g>
<defs>
<clipPath id="clip0_110_245">
<rect width="25" height="25" fill="white" transform="translate(0 0.5)"/>
</clipPath>
</defs>
</svg>
