<svg width="25" height="26" viewBox="0 0 25 26" fill="none" xmlns="http://www.w3.org/2000/svg">
<g clip-path="url(#clip0_110_239)">
<path d="M12.5 0.5C10.0277 0.5 7.61099 1.23311 5.55538 2.60663C3.49976 3.98015 1.89761 5.93238 0.951511 8.21646C0.00541608 10.5005 -0.242126 13.0139 0.24019 15.4386C0.722505 17.8634 1.91301 20.0907 3.66117 21.8388C5.40933 23.587 7.63661 24.7775 10.0614 25.2598C12.4861 25.7421 14.9995 25.4946 17.2835 24.5485C19.5676 23.6024 21.5199 22.0002 22.8934 19.9446C24.2669 17.889 25 15.4723 25 13C24.9964 9.68589 23.6783 6.50855 21.3349 4.16512C18.9915 1.8217 15.8141 0.503584 12.5 0.5ZM18.4698 12.5833L13.1708 17.9479C13.0835 18.0374 12.9792 18.1085 12.864 18.157C12.7488 18.2055 12.625 18.2305 12.5 18.2305C12.375 18.2305 12.2512 18.2055 12.136 18.157C12.0208 18.1085 11.9165 18.0374 11.8292 17.9479L6.53021 12.5833C6.39701 12.4492 6.30625 12.2788 6.26928 12.0934C6.2323 11.908 6.25073 11.7158 6.32228 11.5409C6.39383 11.3659 6.51532 11.2158 6.6716 11.1095C6.82788 11.0031 7.01202 10.9451 7.20105 10.9427H17.799C17.988 10.9451 18.1721 11.0031 18.3284 11.1095C18.4847 11.2158 18.6062 11.3659 18.6777 11.5409C18.7493 11.7158 18.7677 11.908 18.7307 12.0934C18.6938 12.2788 18.603 12.4492 18.4698 12.5833Z" fill="#B9A179"/>
</g>
<defs>
<clipPath id="clip0_110_239">
<rect width="25" height="25" fill="white" transform="translate(0 0.5)"/>
</clipPath>
</defs>
</svg>
