<svg width="30" height="30" viewBox="0 0 30 30" fill="none" xmlns="http://www.w3.org/2000/svg">
<path fill-rule="evenodd" clip-rule="evenodd" d="M15 30C23.2843 30 30 23.2843 30 15C30 6.71573 23.2843 0 15 0C6.71573 0 0 6.71573 0 15C0 23.2843 6.71573 30 15 30ZM17.0459 6.68255C16.3515 6.23753 15.5351 6 14.7 6C13.5801 6 12.5061 6.42669 11.7143 7.18621C10.9224 7.94573 10.4776 8.97586 10.4776 10.05C10.4776 10.851 10.7252 11.634 11.1892 12.3C11.6531 12.9661 12.3126 13.4851 13.0841 13.7917C13.8557 14.0982 14.7047 14.1784 15.5237 14.0222C16.3428 13.8659 17.0952 13.4802 17.6857 12.9138C18.2762 12.3474 18.6784 11.6257 18.8413 10.8401C19.0042 10.0545 18.9206 9.24016 18.601 8.50012C18.2814 7.76008 17.7402 7.12756 17.0459 6.68255ZM8.59374 18.0968C7.71696 18.9272 7.21628 20.0552 7.2 21.2369C9.25788 23.0156 11.9298 24 14.7 24C17.4702 24 20.1421 23.0156 22.2 21.2369C22.1837 20.0552 21.683 18.9272 20.8062 18.0968C19.9295 17.2664 18.7471 16.8006 17.5149 16.8H11.885C10.6529 16.8006 9.47052 17.2664 8.59374 18.0968Z" fill="#B9A179"/>
</svg>
