<svg width="30" height="30" viewBox="0 0 30 30" fill="none" xmlns="http://www.w3.org/2000/svg">
<g clip-path="url(#clip0_1_224)">
<path fill-rule="evenodd" clip-rule="evenodd" d="M30 15C30 23.2843 23.2843 30 15 30C6.71573 30 0 23.2843 0 15C0 6.71573 6.71573 0 15 0C23.2843 0 30 6.71573 30 15ZM8.59452 7.3946C7.77694 8.21219 7.33953 9.55451 7.33953 11.721V17.0791C7.33953 19.2456 7.77694 20.5879 8.59452 21.4055C9.41212 22.2231 10.7544 22.6605 12.9209 22.6605H18.2791C20.4456 22.6605 21.7879 22.2231 22.6055 21.4055C23.423 20.5879 23.8604 19.2456 23.8604 17.0791V13.2837H20.9582C19.5815 13.2837 18.4506 13.0629 17.6939 12.3062C16.9371 11.5494 16.7163 10.4185 16.7163 9.04188V6.13961H12.9209C10.7544 6.13961 9.41212 6.57701 8.59452 7.3946ZM17.3757 4.80008H12.9209C10.6223 4.80008 8.83904 5.2557 7.64733 6.44741C6.45562 7.63912 6 9.42239 6 11.721V17.0791C6 19.3778 6.45562 21.161 7.64733 22.3527C8.83904 23.5444 10.6223 24.0001 12.9209 24.0001H18.2791C20.5777 24.0001 22.3609 23.5444 23.5527 22.3527C24.7444 21.161 25.2 19.3778 25.2 17.0791V12.6233C25.2004 12.5964 25.1991 12.5695 25.1962 12.5429C25.1857 12.4434 25.1534 12.3504 25.1042 12.2687C25.0765 12.2227 25.043 12.1795 25.0039 12.1404L17.8597 4.99619C17.8187 4.95517 17.7732 4.92031 17.7247 4.89186C17.6476 4.84662 17.5607 4.81634 17.4679 4.80504C17.4374 4.80127 17.4066 4.7996 17.3757 4.80008ZM18.0558 9.04188V7.08675L22.9133 11.9442H20.9582C19.6557 11.9442 19.0006 11.7185 18.6411 11.359C18.2816 10.9995 18.0558 10.3443 18.0558 9.04188ZM10.4651 15.2931C10.4651 14.9232 10.765 14.6233 11.1349 14.6233H16.493C16.8629 14.6233 17.1628 14.9232 17.1628 15.2931C17.1628 15.663 16.8629 15.9629 16.493 15.9629H11.1349C10.765 15.9629 10.4651 15.663 10.4651 15.2931ZM11.1349 18.1954C10.765 18.1954 10.4651 18.4952 10.4651 18.8651C10.4651 19.235 10.765 19.5349 11.1349 19.5349H14.707C15.0769 19.5349 15.3767 19.235 15.3767 18.8651C15.3767 18.4952 15.0769 18.1954 14.707 18.1954H11.1349Z" fill="#B9A179"/>
</g>
<defs>
<clipPath id="clip0_1_224">
<rect width="30" height="30" fill="white"/>
</clipPath>
</defs>
</svg>
