<svg width="31" height="31" viewBox="0 0 31 31" fill="none" xmlns="http://www.w3.org/2000/svg">
<g clip-path="url(#clip0_16_976)">
<path d="M4.25 14.25H14.25V4.25H4.25V14.25ZM5.5 5.5H13V13H5.5V5.5ZM26.75 4.25H16.75V14.25H26.75V4.25ZM25.5 13H18V5.5H25.5V13ZM4.25 26.75H14.25V16.75H4.25V26.75ZM5.5 18H13V25.5H5.5V18ZM6.75 24.25H11.75V19.25H6.75V24.25ZM8 20.5H10.5V23H8V20.5ZM6.75 11.75H11.75V6.75H6.75V11.75ZM8 8H10.5V10.5H8V8ZM24.25 6.75H19.25V11.75H24.25V6.75ZM23 10.5H20.5V8H23V10.5ZM24.25 24.25V20.5H26.75V16.75H23V19.25H20.5V16.75H16.75V20.5H19.25V23H16.75V26.75H20.5V24.25H24.25ZM24.25 18H25.5V19.25H24.25V18ZM18 19.25V18H19.25V19.25H18ZM20.5 20.5H23V23H20.5V20.5ZM19.25 25.5H18V24.25H19.25V25.5ZM1.75 9.25H0.5V3.625C0.5 1.9025 1.9025 0.5 3.625 0.5H9.25V1.75H3.625C2.59125 1.75 1.75 2.59125 1.75 3.625V9.25ZM3.625 29.25H9.25V30.5H3.625C1.9025 30.5 0.5 29.0975 0.5 27.375V21.75H1.75V27.375C1.75 28.4088 2.59125 29.25 3.625 29.25ZM29.25 21.75H30.5V27.375C30.5 29.0975 29.0975 30.5 27.375 30.5H21.75V29.25H27.375C28.4088 29.25 29.25 28.4088 29.25 27.375V21.75ZM30.5 3.625V9.25H29.25V3.625C29.25 2.59125 28.4088 1.75 27.375 1.75H21.75V0.5H27.375C29.0975 0.5 30.5 1.9025 30.5 3.625Z" fill="#414649"/>
</g>
<defs>
<clipPath id="clip0_16_976">
<rect width="30" height="30" fill="white" transform="translate(0.5 0.5)"/>
</clipPath>
</defs>
</svg>
