<svg width="20" height="26" viewBox="0 0 20 26" fill="none" xmlns="http://www.w3.org/2000/svg">
<path d="M10.0006 0.5C11.1141 0.5 12.2025 0.829899 13.1283 1.44798C14.0541 2.06606 14.7756 2.94456 15.2017 3.97239C15.6278 5.00022 15.7393 6.13122 15.5221 7.22236C15.3048 8.3135 14.7687 9.31577 13.9814 10.1024C13.1941 10.8891 12.191 11.4248 11.0989 11.6419C10.0069 11.8589 8.87496 11.7475 7.84628 11.3218C6.81761 10.896 5.93839 10.1751 5.3198 9.25005C4.70121 8.32503 4.37104 7.23749 4.37104 6.12498C4.37104 4.63314 4.96416 3.20241 6.01991 2.14752C7.07567 1.09263 8.50758 0.5 10.0006 0.5ZM0.0012207 21.6624C0.0229225 20.0211 0.690468 18.4544 1.85944 17.3011C3.0284 16.1478 4.6048 15.5008 6.24757 15.4999H13.7537C15.3965 15.5008 16.9729 16.1478 18.1418 17.3011C19.3108 18.4544 19.9784 20.0211 20.0001 21.6624C17.2564 24.1328 13.694 25.5 10.0006 25.5C6.3073 25.5 2.74491 24.1328 0.0012207 21.6624Z" fill="#B9A179"/>
</svg>
