<svg width="13" height="16" viewBox="0 0 13 16" fill="none" xmlns="http://www.w3.org/2000/svg">
<g clip-path="url(#clip0_78_1217)">
<path d="M12.0572 4.20798C12.1126 4.1088 12.161 4.00255 12.1887 3.88211C12.3616 3.0887 11.7667 2.42988 11.075 1.67189C10.8882 1.46644 10.6876 1.24684 10.487 1.01306C10.1757 0.637604 9.74678 0.46051 9.29717 0.510097C8.18342 0.623441 6.99366 2.18902 6.24655 3.35789C5.50632 2.18902 4.3096 0.623441 3.20282 0.510097C2.75318 0.45342 2.32429 0.637604 2.013 1.00598C1.81931 1.23975 1.6187 1.45936 1.43193 1.6648C0.740179 2.42279 0.138351 3.08162 0.318203 3.87503C0.33896 4.00255 0.387382 4.1088 0.442726 4.20798C0.186773 4.29299 0 4.52677 0 4.81721V5.23518V7.72874V14.4374C0 15.0183 0.463476 15.5 1.03763 15.5H11.4623C12.0296 15.5 12.5 15.0254 12.5 14.4374V7.72171V5.22809V4.81721C12.5 4.52677 12.3132 4.29299 12.0572 4.20798ZM1.38351 5.58229H11.1165V6.94953H1.38351V5.58229ZM9.4217 1.92691C9.42858 1.92691 9.42858 1.92691 9.43553 1.92691C9.64303 2.18193 9.85748 2.41571 10.0581 2.63532C10.3348 2.93993 10.7083 3.35081 10.8121 3.56333C10.7568 3.60584 10.6461 3.67668 10.4386 3.76169C9.55311 4.12297 8.30796 4.15131 7.42249 4.1088C8.20421 2.89743 9.06889 1.92691 9.4217 1.92691ZM2.44189 2.63532C2.6425 2.41571 2.85694 2.18193 3.05755 1.91274C3.05755 1.91274 3.05755 1.91274 3.06446 1.91274C3.41726 1.91274 4.2889 2.89034 5.07749 4.1088C4.19898 4.15131 2.95378 4.12297 2.06143 3.76169C1.8539 3.67668 1.74322 3.60584 1.68788 3.56333C1.78472 3.35081 2.15827 2.93993 2.44189 2.63532ZM1.38351 14.0761V8.36632H11.1165V14.0761H1.38351Z" fill="#B9A179"/>
</g>
<defs>
<clipPath id="clip0_78_1217">
<rect width="12.5" height="15" fill="white" transform="translate(0 0.5)"/>
</clipPath>
</defs>
</svg>
