<svg width="13" height="16" viewBox="0 0 13 16" fill="none" xmlns="http://www.w3.org/2000/svg">
<g clip-path="url(#clip0_78_1264)">
<path d="M10.4422 2.07895C10.5776 2.07895 10.6949 2.18158 10.6949 2.3V13.7079C10.6949 13.8263 10.5776 13.9289 10.4422 13.9289H2.05776C1.92238 13.9211 1.80505 13.8184 1.80505 13.7V2.3C1.80505 2.18158 1.92238 2.07895 2.05776 2.07895H10.4422ZM10.4422 0.5H2.05776C0.920576 0.5 0 1.30526 0 2.3V13.7079C0 14.6947 0.920576 15.5 2.05776 15.5H10.4422C11.5704 15.5 12.5 14.6947 12.5 13.7V2.3C12.5 1.30526 11.5704 0.5 10.4422 0.5Z" fill="#B9A179"/>
<path d="M6.24577 11.6158C5.73133 11.6158 5.3252 11.979 5.3252 12.4211C5.3252 12.8711 5.74036 13.2264 6.24577 13.2264C6.76021 13.2264 7.16635 12.8632 7.16635 12.4211C7.17537 11.979 6.76021 11.6158 6.24577 11.6158Z" fill="#B9A179"/>
</g>
<defs>
<clipPath id="clip0_78_1264">
<rect width="12.5" height="15" fill="white" transform="translate(0 0.5)"/>
</clipPath>
</defs>
</svg>
