<svg width="13" height="15" viewBox="0 0 13 15" fill="none" xmlns="http://www.w3.org/2000/svg">
<g clip-path="url(#clip0_11_746)">
<path d="M10.625 5.265V4.37499C10.625 1.95876 8.66625 0 6.24999 0C3.83373 0 1.875 1.95876 1.875 4.37499V5.265C0.73752 5.76144 0.00164063 6.88392 0 8.12499V11.875C0.00205078 13.6 1.39995 14.9979 3.12498 15H9.37497C11.1 14.9979 12.4979 13.6 12.5 11.875V8.12499C12.4984 6.88392 11.7625 5.76144 10.625 5.265ZM6.87498 10.625C6.87498 10.9702 6.59517 11.25 6.24999 11.25C5.90481 11.25 5.625 10.9702 5.625 10.625V9.375C5.625 9.02982 5.90481 8.75001 6.24999 8.75001C6.59517 8.75001 6.87498 9.02982 6.87498 9.375V10.625ZM9.375 5.00001H3.12498V4.37502C3.12498 2.64914 4.52408 1.25001 6.24999 1.25001C7.9759 1.25001 9.375 2.64911 9.375 4.37502V5.00001Z" fill="#B9A179"/>
</g>
<defs>
<clipPath id="clip0_11_746">
<rect width="12.5" height="15" fill="white"/>
</clipPath>
</defs>
</svg>
