<svg width="13" height="15" viewBox="0 0 13 15" fill="none" xmlns="http://www.w3.org/2000/svg">
<g clip-path="url(#clip0_11_753)">
<path d="M6.24999 0C6.94592 0 7.62623 0.19794 8.20487 0.568788C8.78352 0.939636 9.23452 1.46674 9.50084 2.08344C9.76716 2.70013 9.83685 3.37873 9.70108 4.03341C9.56531 4.6881 9.23018 5.28946 8.73809 5.76146C8.24599 6.23346 7.61902 6.5549 6.93645 6.68513C6.25389 6.81535 5.5464 6.74851 4.90344 6.49307C4.26048 6.23762 3.71094 5.80504 3.3243 5.25003C2.93766 4.69502 2.73129 4.0425 2.73129 3.37499C2.73129 2.47988 3.10201 1.62144 3.7619 0.988511C4.42178 0.355579 5.31677 0 6.24999 0ZM0 12.6975C0.0135644 11.7127 0.430804 10.7726 1.16145 10.0807C1.8921 9.3887 2.8774 9.00047 3.90419 8.99997H8.59579C9.62258 9.00047 10.6079 9.3887 11.3385 10.0807C12.0692 10.7726 12.4864 11.7127 12.5 12.6975C10.7851 14.1797 8.55846 15 6.24999 15C3.94152 15 1.7149 14.1797 0 12.6975Z" fill="#B9A179"/>
</g>
<defs>
<clipPath id="clip0_11_753">
<rect width="12.5" height="15" fill="white"/>
</clipPath>
</defs>
</svg>
