<svg width="15" height="17" viewBox="0 0 15 17" fill="none" xmlns="http://www.w3.org/2000/svg">
<g clip-path="url(#clip0_81_1398)">
<path d="M7.52001 13.15C7.84001 13.15 8.12001 13.4329 8.12001 13.7562C8.12001 14.0795 7.84001 14.3625 7.52001 14.3625C7.20001 14.3625 6.92001 14.0795 6.92001 13.7562C6.92001 13.4329 7.20001 13.15 7.52001 13.15ZM3.16001 3.04617C3.48001 3.04617 3.76 3.32907 3.76 3.65239C3.76 3.97571 3.48001 4.25863 3.16001 4.25863C2.84 4.25863 2.56 3.97571 2.56 3.65239C2.56 3.32907 2.84 3.04617 3.16001 3.04617ZM11.92 3.04617C12.24 3.04617 12.52 3.32907 12.52 3.65239C12.52 3.97571 12.24 4.25863 11.92 4.25863C11.6 4.25863 11.32 3.97571 11.32 3.65239C11.32 3.32907 11.6 3.04617 11.92 3.04617ZM7.52001 12.1396C8.48001 11.3717 9.24001 10.4017 9.80003 9.31054C10.44 8.1385 10.84 6.84521 10.96 5.5115C10.84 5.39025 10.72 5.30942 10.64 5.14776C10.64 5.14776 10.44 4.90527 10.32 4.78402H4.72001C4.72001 4.78402 4.52001 5.02651 4.40001 5.14776C4.28 5.269 4.16 5.39025 4.08 5.5115C4.24 6.84521 4.64001 8.1385 5.28 9.31054C5.84001 10.4017 6.64001 11.3717 7.56001 12.1396H7.52001ZM10.44 9.63386C9.75998 10.8867 8.88001 12.0183 7.72001 12.8671C7.72001 12.8671 7.40001 12.9883 7.28001 12.8671C6.16001 11.9779 5.24 10.8463 4.56001 9.59345C3.88 8.30016 3.44001 6.84521 3.28001 5.34983C3.28001 5.22859 3.28001 5.10734 3.40001 5.02651C3.56001 4.90527 3.68 4.74361 3.84 4.62236H3.88C3.88 4.62236 4.12 4.33946 4.24 4.1778C4.32 4.09696 4.40001 4.01613 4.52001 4.01613H10.52C10.52 4.01613 10.72 4.05654 10.8 4.1778C10.92 4.33946 11.04 4.50112 11.16 4.62236C11.16 4.62236 11.44 4.90527 11.6 5.02651C11.6 5.02651 11.7601 5.22859 11.72 5.34983C11.5601 6.84521 11.12 8.30016 10.44 9.59345V9.63386ZM7.52001 15.2111C11.5601 13.1095 13.8401 8.62348 13.8401 4.13737V3.73322C12.92 3.45032 12.2 2.64201 11.9601 1.67205H3.08C2.88 2.64201 2.16001 3.4099 1.2 3.73322V4.13737C1.2 8.62348 3.52001 13.1095 7.52001 15.2111ZM7.80001 16.4641C7.80001 16.4641 7.44001 16.5449 7.28001 16.4641C2.68 14.2816 0 9.22971 0 4.1778C0 4.05654 0 3.9353 0 3.73322C0 3.57156 0 3.4099 0 3.28866C0 3.00575 0.24 2.72284 0.520001 2.68242C1.28 2.60159 1.88 1.91454 1.88 1.14664H1.92001C1.92001 0.782907 2.2 0.5 2.52 0.5H12.52C12.84 0.5 13.12 0.782908 13.12 1.10623C13.12 1.87412 13.72 2.56118 14.48 2.68242C14.76 2.68242 15 2.96534 15 3.24824C15 3.36949 15 3.53115 15 3.69281C15 3.89488 15 4.05654 15 4.13737C15 9.18929 12.32 14.2008 7.72001 16.4236L7.80001 16.4641Z" fill="#B9A179"/>
</g>
<defs>
<clipPath id="clip0_81_1398">
<rect width="15" height="16" fill="white" transform="translate(0 0.5)"/>
</clipPath>
</defs>
</svg>
