<?xml version="1.0" encoding="utf-8"?>
<!-- Generator: Adobe Illustrator 22.0.1, SVG Export Plug-In . SVG Version: 6.00 Build 0)  -->
<svg version="1.1" id="Layer_1" xmlns="http://www.w3.org/2000/svg" xmlns:xlink="http://www.w3.org/1999/xlink" x="0px" y="0px"
	 viewBox="0 0 60 60" style="enable-background:new 0 0 60 60;" xml:space="preserve">
<style type="text/css">
	.st0{fill:#DE2910;}
	.st1{fill:#FFDE00;}
</style>
<g>
	<circle class="st0" cx="30" cy="30" r="30"/>
	<polygon class="st1" points="13.8,9.3 15.8,15.4 22.3,15.4 17.1,19.2 19.1,25.4 13.8,21.6 8.6,25.4 10.6,19.2 5.4,15.4 11.8,15.4 	
		"/>
	<polygon class="st1" points="30.7,6.1 30.6,8.2 32.5,9 30.5,9.5 30.3,11.6 29.2,9.8 27.1,10.4 28.5,8.7 27.4,6.9 29.3,7.7 	"/>
	<polygon class="st1" points="38,13 37,14.9 38.5,16.4 36.4,16 35.4,17.9 35.1,15.8 33,15.5 34.9,14.5 34.6,12.4 36.1,13.9 	"/>
	<polygon class="st1" points="35.8,21.6 36.4,23.6 38.6,23.6 36.8,24.9 37.5,26.9 35.8,25.6 34.1,26.9 34.7,24.9 33,23.6 35.1,23.6 
			"/>
	<polygon class="st1" points="30.7,28.1 30.6,30.2 32.5,31 30.5,31.5 30.3,33.7 29.2,31.9 27.1,32.4 28.5,30.8 27.4,28.9 29.3,29.7 
			"/>
</g>
</svg>
