<?xml version="1.0" encoding="utf-8"?>
<!-- Generator: Adobe Illustrator 22.0.1, SVG Export Plug-In . SVG Version: 6.00 Build 0)  -->
<svg version="1.1" id="Layer_1" xmlns="http://www.w3.org/2000/svg" xmlns:xlink="http://www.w3.org/1999/xlink" x="0px" y="0px"
	 viewBox="0 0 60 60" style="enable-background:new 0 0 60 60;" xml:space="preserve">
<style type="text/css">
	.st0{clip-path:url(#SVGID_2_);}
	.st1{fill:#231F20;}
	.st2{fill:#FFFFFF;}
	.st3{fill:#BF0A30;}
	.st4{fill:#002868;}
</style>
<g>
	<g>
		<defs>
			<circle id="SVGID_1_" cx="30" cy="30" r="30"/>
		</defs>
		<clipPath id="SVGID_2_">
			<use xlink:href="#SVGID_1_"  style="overflow:visible;"/>
		</clipPath>
		<g class="st0">
			<path class="st1" d="M-0.6,62.3V-1.3h95.1v63.4v0.2H-0.6z M94.3,62.1v-0.2V62.1z M-0.2,61.9h94.3l0-62.8H-0.2V61.9z"/>
			<rect x="-0.4" y="42.6" class="st2" width="94.7" height="4.9"/>
			<rect x="-0.4" y="37.8" class="st3" width="94.7" height="4.9"/>
			<rect x="-0.4" y="52.4" class="st2" width="94.7" height="4.9"/>
			<rect x="-0.4" y="57.2" class="st3" width="94.7" height="4.9"/>
			<rect x="-0.4" y="47.5" class="st3" width="94.7" height="4.9"/>
			<rect x="-0.4" y="32.9" class="st2" width="94.7" height="4.9"/>
			<rect x="-0.4" y="18.4" class="st3" width="94.7" height="4.9"/>
			<rect x="-0.4" y="3.8" class="st2" width="94.7" height="4.9"/>
			<rect x="-0.4" y="8.6" class="st3" width="94.7" height="4.9"/>
			<rect x="-0.4" y="28.1" class="st3" width="94.7" height="4.9"/>
			<rect x="-0.4" y="-1.1" class="st3" width="94.7" height="4.9"/>
			<rect x="-0.4" y="13.5" class="st2" width="94.7" height="4.9"/>
			<rect x="-0.4" y="23.2" class="st2" width="94.7" height="4.9"/>
			<rect x="-0.4" y="-1.1" class="st4" width="37.9" height="34"/>
			<polygon class="st2" points="28.1,0.7 28.3,1.5 29.2,1.5 28.5,2 28.8,2.9 28.1,2.4 27.4,2.9 27.6,2 27,1.5 27.8,1.5 			"/>
			<polygon class="st2" points="28.1,7.8 28.3,8.6 29.2,8.6 28.5,9.1 28.8,9.9 28.1,9.4 27.4,9.9 27.6,9.1 27,8.6 27.8,8.6 			"/>
			<polygon class="st2" points="28.1,14.9 28.3,15.7 29.2,15.7 28.5,16.2 28.8,17 28.1,16.5 27.4,17 27.6,16.2 27,15.7 27.8,15.7 
							"/>
			<polygon class="st2" points="28.1,22.1 28.3,22.9 29.2,22.9 28.5,23.4 28.8,24.2 28.1,23.7 27.4,24.2 27.6,23.4 27,22.9 
				27.8,22.9 			"/>
			<polygon class="st2" points="28.1,29 28.3,29.8 29.2,29.8 28.5,30.3 28.8,31.1 28.1,30.6 27.4,31.1 27.6,30.3 27,29.8 27.8,29.8 
							"/>
			<polygon class="st2" points="21.7,0.7 22,1.5 22.8,1.5 22.1,2 22.4,2.9 21.7,2.4 21,2.9 21.3,2 20.6,1.5 21.5,1.5 			"/>
			<polygon class="st2" points="21.7,7.8 22,8.6 22.8,8.6 22.1,9.1 22.4,9.9 21.7,9.4 21,9.9 21.3,9.1 20.6,8.6 21.5,8.6 			"/>
			<polygon class="st2" points="21.7,14.9 22,15.7 22.8,15.7 22.1,16.2 22.4,17 21.7,16.5 21,17 21.3,16.2 20.6,15.7 21.5,15.7 			
				"/>
			<polygon class="st2" points="21.7,22.1 22,22.9 22.8,22.9 22.1,23.4 22.4,24.2 21.7,23.7 21,24.2 21.3,23.4 20.6,22.9 21.5,22.9 
							"/>
			<polygon class="st2" points="21.7,29 22,29.8 22.8,29.8 22.1,30.3 22.4,31.1 21.7,30.6 21,31.1 21.3,30.3 20.6,29.8 21.5,29.8 
							"/>
			<polygon class="st2" points="15.4,0.7 15.6,1.5 16.5,1.5 15.8,2 16.1,2.9 15.4,2.4 14.7,2.9 15,2 14.3,1.5 15.1,1.5 			"/>
			<polygon class="st2" points="15.4,7.8 15.6,8.6 16.5,8.6 15.8,9.1 16.1,9.9 15.4,9.4 14.7,9.9 15,9.1 14.3,8.6 15.1,8.6 			"/>
			<polygon class="st2" points="15.4,14.9 15.6,15.7 16.5,15.7 15.8,16.2 16.1,17 15.4,16.5 14.7,17 15,16.2 14.3,15.7 15.1,15.7 
							"/>
			<polygon class="st2" points="15.4,22.1 15.6,22.9 16.5,22.9 15.8,23.4 16.1,24.2 15.4,23.7 14.7,24.2 15,23.4 14.3,22.9 
				15.1,22.9 			"/>
			<polygon class="st2" points="15.4,29 15.6,29.8 16.5,29.8 15.8,30.3 16.1,31.1 15.4,30.6 14.7,31.1 15,30.3 14.3,29.8 15.1,29.8 
							"/>
			<polygon class="st2" points="9,0.7 9.3,1.5 10.1,1.5 9.5,2 9.7,2.9 9,2.4 8.4,2.9 8.6,2 7.9,1.5 8.8,1.5 			"/>
			<polygon class="st2" points="9,7.8 9.3,8.6 10.1,8.6 9.5,9.1 9.7,9.9 9,9.4 8.4,9.9 8.6,9.1 7.9,8.6 8.8,8.6 			"/>
			<polygon class="st2" points="9,14.9 9.3,15.7 10.1,15.7 9.5,16.2 9.7,17 9,16.5 8.4,17 8.6,16.2 7.9,15.7 8.8,15.7 			"/>
			<polygon class="st2" points="9,22.1 9.3,22.9 10.1,22.9 9.5,23.4 9.7,24.2 9,23.7 8.4,24.2 8.6,23.4 7.9,22.9 8.8,22.9 			"/>
			<polygon class="st2" points="9,29 9.3,29.8 10.1,29.8 9.5,30.3 9.7,31.1 9,30.6 8.4,31.1 8.6,30.3 7.9,29.8 8.8,29.8 			"/>
			<polygon class="st2" points="2.7,0.7 3,1.5 3.8,1.5 3.1,2 3.4,2.9 2.7,2.4 2,2.9 2.3,2 1.6,1.5 2.4,1.5 			"/>
			<polygon class="st2" points="2.7,7.8 3,8.6 3.8,8.6 3.1,9.1 3.4,9.9 2.7,9.4 2,9.9 2.3,9.1 1.6,8.6 2.4,8.6 			"/>
			<polygon class="st2" points="2.7,14.9 3,15.7 3.8,15.7 3.1,16.2 3.4,17 2.7,16.5 2,17 2.3,16.2 1.6,15.7 2.4,15.7 			"/>
			<polygon class="st2" points="2.7,22.1 3,22.9 3.8,22.9 3.1,23.4 3.4,24.2 2.7,23.7 2,24.2 2.3,23.4 1.6,22.9 2.4,22.9 			"/>
			<polygon class="st2" points="2.7,29 3,29.8 3.8,29.8 3.1,30.3 3.4,31.1 2.7,30.6 2,31.1 2.3,30.3 1.6,29.8 2.4,29.8 			"/>
			<polygon class="st2" points="31.3,4.3 31.6,5.1 32.4,5.1 31.7,5.6 32,6.4 31.3,5.9 30.6,6.4 30.9,5.6 30.2,5.1 31,5.1 			"/>
			<polygon class="st2" points="31.3,11.6 31.6,12.4 32.4,12.4 31.7,12.9 32,13.7 31.3,13.2 30.6,13.7 30.9,12.9 30.2,12.4 31,12.4 
							"/>
			<polygon class="st2" points="31.2,18.7 31.5,19.5 32.3,19.5 31.7,20 31.9,20.8 31.2,20.3 30.6,20.8 30.8,20 30.1,19.5 31,19.5 
							"/>
			<polygon class="st2" points="31.2,25.8 31.4,26.6 32.3,26.6 31.6,27.1 31.9,27.9 31.2,27.4 30.5,27.9 30.8,27.1 30.1,26.6 
				30.9,26.6 			"/>
			<polygon class="st2" points="25,4.3 25.2,5.1 26.1,5.1 25.4,5.6 25.6,6.4 25,5.9 24.3,6.4 24.5,5.6 23.8,5.1 24.7,5.1 			"/>
			<polygon class="st2" points="25,11.6 25.2,12.4 26.1,12.4 25.4,12.9 25.6,13.7 25,13.2 24.3,13.7 24.5,12.9 23.8,12.4 24.7,12.4 
							"/>
			<polygon class="st2" points="24.9,18.7 25.2,19.5 26,19.5 25.3,20 25.6,20.8 24.9,20.3 24.2,20.8 24.5,20 23.8,19.5 24.6,19.5 
							"/>
			<polygon class="st2" points="24.8,25.8 25.1,26.6 25.9,26.6 25.3,27.1 25.5,27.9 24.8,27.4 24.1,27.9 24.4,27.1 23.7,26.6 
				24.6,26.6 			"/>
			<polygon class="st2" points="18.6,4 18.9,4.8 19.7,4.8 19,5.3 19.3,6.1 18.6,5.6 17.9,6.1 18.2,5.3 17.5,4.8 18.4,4.8 			"/>
			<polygon class="st2" points="18.6,11.3 18.9,12.1 19.7,12.1 19,12.6 19.3,13.4 18.6,12.9 17.9,13.4 18.2,12.6 17.5,12.1 
				18.4,12.1 			"/>
			<polygon class="st2" points="18.6,18.5 18.8,19.3 19.7,19.3 19,19.8 19.2,20.6 18.6,20.1 17.9,20.6 18.1,19.8 17.4,19.3 
				18.3,19.3 			"/>
			<polygon class="st2" points="18.5,25.6 18.7,26.4 19.6,26.4 18.9,26.9 19.2,27.7 18.5,27.2 17.8,27.7 18.1,26.9 17.4,26.4 
				18.2,26.4 			"/>
			<polygon class="st2" points="12.3,4 12.5,4.8 13.4,4.8 12.7,5.3 13,6.1 12.3,5.6 11.6,6.1 11.8,5.3 11.2,4.8 12,4.8 			"/>
			<polygon class="st2" points="12.3,11.3 12.5,12.1 13.4,12.1 12.7,12.6 13,13.4 12.3,12.9 11.6,13.4 11.8,12.6 11.2,12.1 12,12.1 
							"/>
			<polygon class="st2" points="12.2,18.4 12.5,19.2 13.3,19.2 12.6,19.7 12.9,20.5 12.2,20 11.5,20.5 11.8,19.7 11.1,19.2 
				11.9,19.2 			"/>
			<polygon class="st2" points="12.1,25.5 12.4,26.3 13.3,26.3 12.6,26.8 12.8,27.6 12.1,27.1 11.5,27.6 11.7,26.8 11,26.3 
				11.9,26.3 			"/>
			<polygon class="st2" points="5.9,3.8 6.2,4.6 7,4.6 6.4,5.1 6.6,5.9 5.9,5.4 5.2,5.9 5.5,5.1 4.8,4.6 5.7,4.6 			"/>
			<polygon class="st2" points="5.9,11.1 6.2,11.9 7,11.9 6.4,12.4 6.6,13.2 5.9,12.7 5.2,13.2 5.5,12.4 4.8,11.9 5.7,11.9 			"/>
			<polygon class="st2" points="5.9,18.3 6.1,19.1 7,19.1 6.3,19.6 6.6,20.4 5.9,19.9 5.2,20.4 5.4,19.6 4.8,19.1 5.6,19.1 			"/>
			<polygon class="st2" points="5.8,25.4 6.1,26.2 6.9,26.2 6.2,26.7 6.5,27.5 5.8,27 5.1,27.5 5.4,26.7 4.7,26.2 5.5,26.2 			"/>
			<polygon class="st2" points="34.4,0.7 34.7,1.5 35.5,1.5 34.8,2 35.1,2.9 34.4,2.4 33.7,2.9 34,2 33.3,1.5 34.1,1.5 			"/>
			<polygon class="st2" points="34.4,7.8 34.7,8.6 35.5,8.6 34.8,9.1 35.1,9.9 34.4,9.4 33.7,9.9 34,9.1 33.3,8.6 34.1,8.6 			"/>
			<polygon class="st2" points="34.4,14.9 34.7,15.7 35.5,15.7 34.8,16.2 35.1,17 34.4,16.5 33.7,17 34,16.2 33.3,15.7 34.1,15.7 
							"/>
			<polygon class="st2" points="34.4,22.1 34.7,22.9 35.5,22.9 34.8,23.4 35.1,24.2 34.4,23.7 33.7,24.2 34,23.4 33.3,22.9 
				34.1,22.9 			"/>
			<polygon class="st2" points="34.4,29 34.7,29.8 35.5,29.8 34.8,30.3 35.1,31.1 34.4,30.6 33.7,31.1 34,30.3 33.3,29.8 34.1,29.8 
							"/>
		</g>
	</g>
</g>
</svg>
