<?xml version="1.0" encoding="utf-8"?>
<!-- Generator: Adobe Illustrator 22.0.1, SVG Export Plug-In . SVG Version: 6.00 Build 0)  -->
<svg version="1.1" id="Layer_1" xmlns="http://www.w3.org/2000/svg" xmlns:xlink="http://www.w3.org/1999/xlink" x="0px" y="0px"
	 viewBox="0 0 60 60" style="enable-background:new 0 0 60 60;" xml:space="preserve">
<style type="text/css">
	.st0{clip-path:url(#SVGID_2_);}
	.st1{fill:#CE1126;}
	.st2{fill:#003F87;}
</style>
<g>
	<g>
		<defs>
			<circle id="SVGID_1_" cx="30" cy="30" r="30"/>
		</defs>
		<use xlink:href="#SVGID_1_"  style="overflow:visible;fill:#FFFFFF;"/>
		<clipPath id="SVGID_2_">
			<use xlink:href="#SVGID_1_"  style="overflow:visible;"/>
		</clipPath>
		<g class="st0">
			<path class="st1" d="M45.5,28.6c0.8,8.6-5.5,16.1-14.1,16.9c-8.6,0.8-16.1-5.5-16.9-14.1c-0.8-8.6,5.5-16.2,14.1-16.9
				C37.2,13.7,44.7,20,45.5,28.6z"/>
			<path class="st2" d="M16.7,22c-2.2,3.7-1.1,8.5,2.6,10.7C23,34.9,27.8,33.7,30,30s7-4.8,10.7-2.6c3.7,2.2,4.8,7,2.6,10.7
				c-4.5,7.4-14,9.7-21.4,5.2C14.6,38.9,12.2,29.3,16.7,22"/>
			<rect x="-5.5" y="10.4" transform="matrix(0.5594 -0.8289 0.8289 0.5594 -8.6617 7.0162)" width="15.6" height="2.4"/>
			<rect x="-2.4" y="12.5" transform="matrix(0.5599 -0.8285 0.8285 0.5599 -9.0302 10.5158)" width="15.6" height="2.4"/>
			<polygon points="3.1,21.7 5.1,23 13.9,10.1 11.9,8.7 			"/>
			<rect x="50.2" y="39.4" transform="matrix(0.5596 -0.8288 0.8288 0.5596 -9.9879 62.5392)" width="7.2" height="2.4"/>
			<rect x="45.5" y="46.4" transform="matrix(0.5583 -0.8296 0.8296 0.5583 -17.7978 61.8133)" width="7.2" height="2.4"/>
			<rect x="53.3" y="41.6" transform="matrix(0.56 -0.8285 0.8285 0.56 -10.3709 66.0109)" width="7.2" height="2.4"/>
			<polygon points="49.2,52 51.3,53.4 55.3,47.4 53.3,46 			"/>
			<rect x="56.5" y="43.7" transform="matrix(0.5586 -0.8294 0.8294 0.5586 -10.6974 69.6356)" width="7.2" height="2.4"/>
			<rect x="51.8" y="50.6" transform="matrix(0.5578 -0.83 0.83 0.5578 -18.5197 68.8881)" width="7.2" height="2.4"/>
			<polygon points="58,20.9 60,19.6 51.3,6.6 49.2,8 			"/>
			<rect x="54.2" y="4.6" transform="matrix(0.8285 -0.5599 0.5599 0.8285 4.9181 32.4158)" width="2.4" height="7.2"/>
			<rect x="58.9" y="11.5" transform="matrix(0.8283 -0.5603 0.5603 0.8283 1.8349 36.2577)" width="2.4" height="7.2"/>
			<rect x="47.9" y="8.8" transform="matrix(0.8294 -0.5586 0.5586 0.8294 1.4696 29.571)" width="2.4" height="7.2"/>
			<rect x="52.6" y="15.7" transform="matrix(0.8291 -0.5591 0.5591 0.8291 -1.609 33.4083)" width="2.4" height="7.2"/>
			<rect x="7.3" y="36.3" transform="matrix(0.829 -0.5592 0.5592 0.829 -23.2346 12.3023)" width="2.4" height="15.6"/>
			<rect x="1.1" y="40.5" transform="matrix(0.8291 -0.5592 0.5592 0.8291 -26.6454 9.5334)" width="2.4" height="15.6"/>
			<rect x="1.8" y="39.1" transform="matrix(0.8291 -0.5591 0.5591 0.8291 -23.3934 9.0094)" width="2.4" height="7.2"/>
			<polygon points="8.7,53.4 10.8,52 6.7,46 4.7,47.4 			"/>
		</g>
	</g>
</g>
</svg>
