<?xml version="1.0" encoding="utf-8"?>
<!-- Generator: Adobe Illustrator 22.0.1, SVG Export Plug-In . SVG Version: 6.00 Build 0)  -->
<svg version="1.1" id="栝鍣_1" xmlns="http://www.w3.org/2000/svg" xmlns:xlink="http://www.w3.org/1999/xlink" x="0px" y="0px"
	 viewBox="0 0 284.1 280" style="enable-background:new 0 0 284.1 280;" xml:space="preserve">
<style type="text/css">
	.st0{fill:#D7C39B;}
</style>
<path class="st0" d="M169.3,146c1.9,1.1,4.3,0.5,5.4-1.4c1.1-1.9,0.5-4.3-1.4-5.4c-1.9-1.1-4.3-0.5-5.4,1.4
	C166.8,142.5,167.4,144.9,169.3,146z M254.7,220.7c1.1-1.9,0.5-4.3-1.4-5.4c-1.9-1.1-4.3-0.5-5.4,1.4c-1.1,1.9-0.5,4.3,1.4,5.4
	S253.6,222.6,254.7,220.7z M178,258.6c0,2.2,1.8,4,4,4s4-1.8,4-4c0-2.2-1.8-4-4-4C179.7,254.6,178,256.4,178,258.6z M253.6,142.2
	c1.9-1.1,2.6-3.5,1.5-5.4c-1.1-1.9-3.5-2.6-5.4-1.5c-1.9,1.1-2.6,3.5-1.5,5.4C249.3,142.6,251.7,143.2,253.6,142.2z M173.7,66
	c1.9-1.1,2.6-3.5,1.5-5.4c-1.1-1.9-3.5-2.6-5.4-1.5c-1.9,1.1-2.6,3.5-1.5,5.4C169.4,66.4,171.8,67.1,173.7,66z M99.7,129.9h4.3v-7
	c7-1.1,10.7-6.1,10.7-11.5c0-6-3.5-9.5-10.5-12.4c-5.9-2.4-8.4-4.2-8.4-7.7c0-2.7,2-5.8,7.2-5.8c4.3,0,7.1,1.5,8.5,2.3l1.7-4.5
	c-2-1.1-4.7-2.2-8.8-2.4v-6.6h-4.2v6.8c-6.2,1-10.2,5.3-10.2,10.9c0,5.9,4.3,9,11.1,11.7c5,2,7.6,4.3,7.6,8c0,3.9-3.2,6.6-8,6.6
	c-3.8,0-7.3-1.3-9.7-2.9l-1.6,4.5c2.4,1.7,6.4,2.9,10.3,3V129.9z M110.8,215.6c-1.9,1.1-2.5,3.6-1.4,5.4c1.1,1.9,3.6,2.5,5.4,1.4
	c1.9-1.1,2.5-3.6,1.4-5.4C115.1,215.1,112.7,214.5,110.8,215.6z M34.1,59.3c-1.9-1.1-4.3-0.4-5.4,1.5c-1.1,1.9-0.4,4.3,1.5,5.4
	c1.9,1.1,4.3,0.4,5.4-1.5C36.7,62.8,36,60.4,34.1,59.3z M102,178.5c-2.2,0-4,1.8-4,4s1.8,4,4,4c2.2,0,4-1.8,4-4
	S104.2,178.5,102,178.5z M30.8,139.5c-1.9,1.1-2.5,3.6-1.4,5.4c1.1,1.9,3.6,2.5,5.4,1.4c1.9-1.1,2.5-3.6,1.4-5.4
	C35.2,139,32.7,138.3,30.8,139.5z M102,26c2.2,0,4-1.8,4-4s-1.8-4-4-4c-2.2,0-4,1.8-4,4S99.8,26,102,26z M214.5,82
	c-2-0.7-4.1,0.4-4.8,2.4c-0.7,2,0.4,4.1,2.4,4.8c10.5,3.5,19.9,8.7,28.1,15.1l-10.4,13.3c-2,2.5-5.4,3.2-8.2,1.7l-7.9-4.3
	c-1.8-1-4.1-0.3-5.1,1.5c-1,1.8-0.3,4.1,1.5,5.1l7.9,4.3c2.1,1.1,4.4,1.7,6.7,1.7c4.2,0,8.3-1.9,11-5.4l10.2-13
	c13.6,12.5,23.2,28.7,27.6,46.4l-16.7,3c-6.7,1.2-11.6,7.1-11.5,13.9l0.1,12.3c0.1,6.8,5,12.6,11.8,13.7l16.2,2.6
	c-0.4,1.6-0.8,3.2-1.3,4.8c-4.9,16-13.7,29.7-25,40.5l-10.8-12.8c-4.4-5.3-11.9-6.6-17.8-3.1l-10.6,6.2c-5.9,3.4-8.5,10.6-6.1,17
	l5.7,15.3c-16.6,4.7-34.6,4.9-52.3-0.3l5.8-15.7c2.4-6.4-0.2-13.6-6.1-17l-10.7-6.2c-5.9-3.4-13.4-2.1-17.8,3.1l-10.5,12.6
	c-9.1-9-16.5-19.9-21.4-32.2c-0.8-1.9-3-2.9-4.9-2.1c-1.9,0.8-2.9,3-2.1,4.9c11.1,27.7,33.4,48.7,61.4,58.3c0,0,0.1,0,0.1,0.1
	c0,0,0.1,0,0.1,0c1,0.4,2.1,0.7,3.1,1c9.9,3,19.8,4.5,29.7,4.5c10.8,0,21.5-1.7,31.5-5c0.1,0,0.2,0,0.3-0.1c0.1,0,0.2-0.1,0.4-0.2
	c12.8-4.3,24.7-11.1,34.9-20c0,0,0.1-0.1,0.1-0.1c0.1-0.1,0.1-0.2,0.2-0.2c13.6-12,24.2-27.8,29.9-46.4c1-3.1,1.7-6.3,2.4-9.4
	c0,0,0,0,0,0c0,0,0,0,0,0C291.9,148.6,263.9,98.6,214.5,82z M153.9,250.3l-5.9,15.9c-9.8-3.8-18.7-9-26.6-15.6l10.7-12.9
	c2-2.4,5.5-3,8.2-1.5l10.7,6.2C153.8,244,155,247.3,153.9,250.3z M214.7,266.6l-5.8-15.6c-1.1-3,0.1-6.3,2.8-7.9l10.6-6.2
	c2.7-1.6,6.2-1,8.2,1.4l10.9,13C233.4,257.9,224.3,263,214.7,266.6z M274.9,193.7l-16.5-2.7c-3.1-0.5-5.4-3.2-5.4-6.4l-0.1-12.3
	c0-3.2,2.2-5.9,5.3-6.4l16.8-3C276.6,172.9,276.6,183.3,274.9,193.7z M206.7,226.5c-5.4,2.8-11.1,4.5-16.9,5.4V223
	c0-2.1-1.7-3.8-3.8-3.8c-2.1,0-3.8,1.7-3.8,3.8v9.4c-1.2,0-2.5,0-3.7-0.1V223c0-2.1-1.7-3.8-3.8-3.8c-2.1,0-3.8,1.7-3.8,3.8v8.3
	c-12-2.5-23.2-8.9-31.2-18.9c-1.3-1.6-3.7-1.9-5.3-0.6c-1.6,1.3-1.9,3.7-0.6,5.3c10,12.4,24.1,20,39.1,22.2c0.5,0.3,1.1,0.5,1.8,0.5
	c0.3,0,0.6-0.1,0.9-0.1c2.1,0.2,4.2,0.3,6.3,0.3c9.5,0,19.2-2.2,28.1-6.8c18.4-9.5,30-27,32.8-46.1c0.3-0.5,0.4-1.1,0.4-1.7
	c0-0.3,0-0.6-0.1-0.8c1.2-11.5-0.8-23.5-6.5-34.5c-4.5-8.7-11.1-16.3-19-22c-1.7-1.2-4.1-0.8-5.3,0.9c-1.2,1.7-0.8,4.1,0.9,5.3
	c7.1,5,12.7,11.5,16.7,19.3c2.8,5.4,4.5,11.1,5.4,16.9h-8.9c-2.1,0-3.8,1.7-3.8,3.8c0,2.1,1.7,3.8,3.8,3.8h9.4c0,1.2,0,2.5-0.1,3.7
	h-9.3c-2.1,0-3.8,1.7-3.8,3.8c0,2.1,1.7,3.8,3.8,3.8h8.3C231.7,204.7,221.8,218.7,206.7,226.5z M130.2,157.1
	c14.6-7.5,25.5-20.3,30.5-36c1.1-3.3,1.8-6.7,2.3-10.1c0.2-0.5,0.4-1.1,0.4-1.7c0-0.3,0-0.5-0.1-0.8c1.2-11.8-0.9-23.7-6.5-34.5
	c-7.5-14.6-20.3-25.5-36-30.5c-3.3-1.1-6.7-1.8-10.1-2.3c-0.5-0.2-1.1-0.4-1.7-0.4c-0.3,0-0.5,0-0.8,0.1
	c-11.8-1.2-23.7,0.9-34.5,6.5c-18.4,9.5-30,27-32.8,46.1c-0.3,0.5-0.4,1.1-0.4,1.7c0,0.3,0,0.6,0.1,0.8c-1.2,11.5,0.8,23.5,6.5,34.5
	c9.5,18.4,27,30,46.1,32.8c0.5,0.3,1.1,0.4,1.7,0.4c0.3,0,0.6,0,0.9-0.1c2.1,0.2,4.2,0.4,6.3,0.4
	C111.6,163.9,121.2,161.7,130.2,157.1z M94.9,143.1c-2.1,0-3.8,1.7-3.8,3.8v8.3C75.6,152,61.6,142.1,53.8,127
	c-2.8-5.4-4.5-11.1-5.4-16.9h8.9c2.1,0,3.8-1.7,3.8-3.8c0-2.1-1.7-3.8-3.8-3.8h-9.4c0-1.2,0-2.5,0.1-3.7h9.3c2.1,0,3.8-1.7,3.8-3.8
	c0-2.1-1.7-3.8-3.8-3.8H49c3.2-15.5,13.1-29.5,28.2-37.3c5.4-2.8,11.1-4.5,16.9-5.4v8.9c0,2.1,1.7,3.8,3.8,3.8
	c2.1,0,3.8-1.7,3.8-3.8v-9.5c1.2,0,2.5,0.1,3.7,0.1v9.3c0,2.1,1.7,3.8,3.8,3.8c2.1,0,3.8-1.7,3.8-3.8v-8.4c1.9,0.4,3.8,0.9,5.7,1.5
	c13.8,4.4,25,13.9,31.6,26.8c2.8,5.4,4.5,11.1,5.4,16.9h-8.9c-2.1,0-3.8,1.7-3.8,3.8c0,2.1,1.7,3.8,3.8,3.8h9.4c0,1.2,0,2.5-0.1,3.7
	h-9.3c-2.1,0-3.8,1.7-3.8,3.8c0,2.1,1.7,3.8,3.8,3.8h8.3c-3.2,15.5-13.1,29.5-28.2,37.3c-5.4,2.8-11.1,4.5-16.9,5.4v-8.9
	c0-2.1-1.7-3.8-3.8-3.8s-3.8,1.7-3.8,3.8v9.4c-1.2,0-2.5,0-3.7-0.1v-9.3C98.6,144.8,97,143.1,94.9,143.1z M133.5,198.9
	c0.1,0,0.2,0,0.3-0.1c0.1,0,0.2-0.1,0.3-0.2c12.8-4.3,24.7-11.1,34.9-20c0,0,0.1-0.1,0.1-0.1c0.1-0.1,0.1-0.2,0.2-0.2
	c13.6-12,24.2-27.8,29.9-46.4c0.9-3.1,1.7-6.2,2.3-9.3c0-0.1,0-0.1,0.1-0.1c0,0,0-0.1,0-0.1c2.8-13.7,2.6-27.5-0.1-40.7c0,0,0,0,0,0
	c0,0,0,0,0,0c-4.6-22-16.4-42.1-33.5-56.8c-0.1-0.1-0.2-0.3-0.4-0.4c0,0-0.1,0-0.1-0.1c-10.2-8.6-22.3-15.4-35.9-19.6
	c-20-6.1-40.6-5.7-59.2,0c-0.2,0-0.5,0.1-0.7,0.2c-0.1,0-0.3,0.1-0.4,0.2C58.4,9.4,46.4,16,36.1,24.8c-0.2,0.1-0.4,0.3-0.6,0.4
	c-0.2,0.2-0.3,0.3-0.5,0.5c-13.8,12.1-24.5,28-30.2,46.7c-0.8,2.5-1.4,5-1.9,7.5c-0.1,0.2-0.1,0.4-0.2,0.6c0,0.1,0,0.2,0,0.2
	c-3,13.7-3,27.4-0.5,40.4c0,0,0,0.1,0,0.1c0,0,0,0,0,0.1c4.2,21.5,15.2,41.2,31.4,56.1c0.1,0.1,0.2,0.2,0.3,0.3
	c0.1,0.1,0.1,0.1,0.2,0.1c9.9,8.9,21.6,15.9,34.9,20.5c0,0,0,0,0.1,0c0,0,0,0,0.1,0c1.1,0.4,2.1,0.7,3.2,1.1
	c9.9,3,19.8,4.4,29.7,4.4C112.8,203.9,123.4,202.2,133.5,198.9z M134.7,190.5l-5.8-15.6c-1.1-3,0.1-6.3,2.8-7.9l10.6-6.2
	c2.7-1.6,6.2-1,8.2,1.4l10.9,13C153.4,181.7,144.4,186.9,134.7,190.5z M194.9,117.6l-16.5-2.7c-3.1-0.5-5.4-3.2-5.4-6.4l-0.1-12.3
	c0-3.2,2.2-5.9,5.3-6.4l16.7-3C196.5,96.8,196.6,107.2,194.9,117.6z M127.7,29.4l5.4-16.1c10,3.5,19.1,8.6,27,14.8l-10.3,13.2
	c-2,2.5-5.4,3.2-8.2,1.7l-10.9-5.8C128,35.7,126.7,32.4,127.7,29.4z M70.7,13.4l5.6,15.7c1.1,3-0.2,6.3-3,7.8l-10.7,6
	c-2.8,1.5-6.2,0.9-8.3-1.7l-11-12.7C51.5,22.1,60.8,16.9,70.7,13.4z M9.3,85.6l16.4,2.9c3.1,0.6,5.4,3.3,5.3,6.4L31,107.2
	c0,3.2-2.3,5.8-5.4,6.4l-16.7,2.8C7.3,106.3,7.4,95.9,9.3,85.6z M74,174.2l-5.9,15.9c-9.9-3.8-18.8-9.1-26.6-15.6l10.7-12.8
	c2-2.4,5.5-3,8.2-1.5l10.7,6.2C73.9,167.9,75.1,171.2,74,174.2z M75.2,192.5l5.8-15.7c2.4-6.4-0.2-13.6-6.1-17l-10.7-6.2
	c-5.9-3.4-13.4-2.1-17.8,3.1L36,169.3c-12.6-12.5-21.5-28.3-25.6-45.6l16.5-2.7c6.8-1.1,11.7-6.9,11.7-13.8L38.6,95
	c0-6.8-4.8-12.7-11.6-13.9l-16.1-2.9c0.3-1.2,0.6-2.3,1-3.5c5-16.3,14-30.3,25.7-41.1l10.9,12.6c2.7,3.4,6.8,5.2,10.9,5.2
	c2.3,0,4.7-0.6,6.9-1.8l10.7-6c6-3.3,8.7-10.5,6.4-16.9l-5.5-15.4c15.3-4.1,31.7-4.3,48-0.1L120.6,27c-2.2,6.5,0.6,13.6,6.7,16.8
	l10.9,5.8c2.1,1.1,4.4,1.7,6.7,1.7c4.2,0,8.3-1.9,11-5.4L165.9,33c13.5,12.5,23,28.7,27.5,46.4l-16.5,3c-6.7,1.2-11.6,7.1-11.5,13.9
	l0.1,12.3c0.1,6.8,5,12.6,11.8,13.7l16.2,2.6c-0.4,1.6-0.8,3.2-1.3,4.7c-4.9,16-13.7,29.7-25,40.5l-10.8-12.8
	c-4.4-5.2-11.9-6.6-17.8-3.1l-10.6,6.2c-5.9,3.4-8.5,10.6-6.1,17l5.7,15.3C111,197.5,92.9,197.7,75.2,192.5z"/>
</svg>
