<?xml version="1.0" encoding="utf-8"?>
<!-- Generator: Adobe Illustrator 23.0.2, SVG Export Plug-In . SVG Version: 6.00 Build 0)  -->
<svg version="1.1" id="Layer_1" xmlns="http://www.w3.org/2000/svg" xmlns:xlink="http://www.w3.org/1999/xlink" x="0px" y="0px"
	 viewBox="0 0 60 60" style="enable-background:new 0 0 60 60;" xml:space="preserve">
<style type="text/css">
	.st0{fill:#DE2910;}
	.st1{fill:#FFFFFF;}
	.st2{fill:none;stroke:#DE2910;stroke-width:1.300000e-02;}
</style>
<circle class="st0" cx="30" cy="30" r="30"/>
<g>
	<g>
		<path class="st1" d="M25.2,25.2c-0.5-1.2-0.8-2.6-0.9-3.3c-0.1-0.9-0.1-1.8-0.1-2.4c0-0.8,0.2-1.7,0.5-2.7
			c0.6-2.1,2.7-3.9,4.4-4.3c1.4-0.3,2.8,0,3.9,0.6c1.1,0.6,2,1.6,2.1,1.8c0,0.1-0.3-0.1-0.4-0.2c-0.1-0.1-0.2-0.1-0.5-0.2
			c-0.3-0.2-0.8-0.2-1.1-0.1c-0.3,0.2-0.4,0.4-0.5,0.5c-0.1,0.2-0.2,0.2-0.2,0.7c0,0.3,0,0.9,0.3,1.4c0.1,0.1,0.1,0.3,0.3,0.5
			c0.3,0.4,0.6,0.8,0.8,1.3c0.3,0.6,0.4,1.3,0.3,1.5l0,0.6c0,0.8-0.5,2.9-2.2,4c-0.4,0.2-0.8,0.5-1.2,0.8c-0.6,0.3-1.1,0.7-1.5,1.3
			c-0.2,0.4-0.2,0.8-0.2,1.2c0,0.8,0.2,1.5,0.4,1.9l0.1,0.3c-0.1,0-0.1,0-0.2-0.1l-0.2-0.2c-0.3-0.3-0.7-1.2-0.9-1.9
			c-0.2-0.6-0.4-1.5-0.4-2.1c0-1.1,0.3-1.9,0.4-2.5c0.2-0.9,0.3-1,0.4-1.2l0,0c0,0,0-0.1,0-0.1c-0.1-0.1-0.2-0.1-0.2,0l0,0
			c-0.2,0.2-0.3,0.7-0.5,1.5c-0.2,0.7-0.4,1.4-0.3,2.5c0,0.6,0.1,1.6,0.4,2.1c0.3,0.8,0.7,1.5,1,1.9l0.2,0.3c0,0.1,0,0.1,0.1,0.1
			l0,0c0,0.1-0.9-0.5-2.1-2C26.5,27.6,25.6,26.1,25.2,25.2"/>
		<path class="st0" d="M29.6,19.7l0.1,1.2l1.2,0.3l-1.2,0.5l0.1,1.2L29,22.1l-1.2,0.4l0.6-1.1l-0.8-1l1.2,0.3L29.6,19.7z"/>
		<path class="st2" d="M29.6,19.7l0.1,1.2l1.2,0.3l-1.2,0.5l0.1,1.2L29,22.1l-1.2,0.4l0.6-1.1l-0.8-1l1.2,0.3L29.6,19.7z"/>
		<path class="st1" d="M23,34c-1.3,0.2-2.8,0.1-3.4,0c-0.9-0.2-1.8-0.4-2.3-0.6c-0.8-0.2-1.6-0.7-2.4-1.2c-1.9-1.1-3-3.7-2.9-5.4
			c0.1-1.5,0.7-2.6,1.6-3.6c0.8-0.9,2.1-1.5,2.3-1.5c0.1,0-0.2,0.3-0.3,0.4c-0.1,0.1-0.1,0.2-0.3,0.4c-0.2,0.3-0.4,0.8-0.4,1
			c0.1,0.4,0.3,0.5,0.4,0.6c0.2,0.2,0.2,0.2,0.6,0.3c0.3,0.1,0.9,0.2,1.4,0.1c0.1,0,0.4-0.1,0.6-0.1c0.4-0.2,0.9-0.3,1.5-0.4
			c0.7-0.1,1.3,0,1.5,0.1l0.6,0.1c0.8,0.2,2.7,1.3,3.2,3.2c0.1,0.4,0.3,0.9,0.4,1.3c0.2,0.7,0.3,1.3,0.9,1.8
			c0.3,0.3,0.7,0.4,1.2,0.5c0.7,0.2,1.5,0.2,2,0.1l0.3,0c0,0.1-0.1,0.1-0.1,0.2L29,31.3c-0.4,0.2-1.3,0.3-2.1,0.4
			c-0.6,0-1.6,0-2.1-0.2c-1-0.3-1.8-0.8-2.3-1.1c-0.8-0.5-0.8-0.5-1.1-0.7l0,0c0,0-0.1,0-0.1,0c-0.1,0-0.1,0.1-0.1,0.2l0,0
			c0.2,0.2,0.6,0.5,1.3,0.9c0.6,0.4,1.3,0.7,2.3,1c0.6,0.1,1.5,0.3,2.1,0.2c0.9-0.1,1.7-0.3,2-0.4l0.3-0.1c0.1,0,0.1,0,0.1,0l0,0
			c0.1,0.1-0.7,0.8-2.5,1.5C25.7,33.4,24,33.9,23,34"/>
		<path class="st0" d="M18.9,28.3l1.2,0.2l0.6-1.1l0.2,1.2l1.2,0.3L21,29.5l0.1,1.2l-0.9-0.9l-1.2,0.5l0.6-1.1L18.9,28.3z"/>
		<path class="st2" d="M18.9,28.3l1.2,0.2l0.6-1.1l0.2,1.2l1.2,0.3L21,29.5l0.1,1.2l-0.9-0.9l-1.2,0.5l0.6-1.1L18.9,28.3z"/>
		<path class="st1" d="M34,24.8c1-0.9,2.2-1.7,2.8-1.9c0.8-0.4,1.7-0.7,2.2-0.9c0.8-0.3,1.7-0.4,2.7-0.4c2.2-0.1,4.6,1.3,5.5,2.8
			c0.8,1.2,0.9,2.6,0.7,3.9c-0.2,1.2-0.8,2.4-1.1,2.6c-0.1,0,0-0.3,0-0.5c0-0.2,0-0.2,0-0.5c0-0.3-0.1-0.9-0.3-1
			c-0.3-0.2-0.5-0.3-0.7-0.3c-0.2,0-0.3-0.1-0.7,0.1c-0.3,0.1-0.9,0.3-1.2,0.7c-0.1,0.1-0.3,0.2-0.4,0.4c-0.2,0.4-0.6,0.8-1,1.2
			c-0.5,0.5-1.1,0.8-1.3,0.8L40.9,32c-0.8,0.3-2.9,0.5-4.5-0.7c-0.3-0.3-0.8-0.5-1.1-0.9c-0.5-0.5-1-0.9-1.7-1
			c-0.4-0.1-0.8,0.1-1.2,0.2c-0.7,0.3-1.4,0.7-1.7,1l-0.2,0.2c-0.1-0.1,0-0.1,0-0.2l0.2-0.3c0.2-0.4,0.9-1,1.5-1.5
			c0.5-0.4,1.3-0.9,1.9-1.1c1-0.3,1.9-0.4,2.5-0.4c0.9-0.1,1,0,1.3,0l0,0c0,0,0.1,0,0.1-0.1c0-0.1,0-0.2-0.1-0.2l0,0
			c-0.3-0.1-0.8,0-1.6,0c-0.7,0-1.5,0.1-2.4,0.5c-0.6,0.2-1.4,0.6-1.9,1.1c-0.7,0.6-1.2,1.2-1.4,1.5l-0.2,0.2c0,0-0.1,0.1-0.1,0.1
			l0,0c-0.1,0,0.2-1.1,1.2-2.6C32.2,26.8,33.3,25.4,34,24.8"/>
		<path class="st0" d="M40.6,27.1l-1.1,0.5l0.1,1.2l-0.8-0.9l-1.2,0.5l0.6-1.1l-0.8-1l1.2,0.3l0.7-1.1l0.1,1.2L40.6,27.1z"/>
		<path class="st2" d="M40.6,27.1l-1.1,0.5l0.1,1.2l-0.8-0.9l-1.2,0.5l0.6-1.1l-0.8-1l1.2,0.3l0.7-1.1l0.1,1.2L40.6,27.1z"/>
		<path class="st1" d="M30.6,38.5c-0.2,1.3-0.8,2.7-1.1,3.2c-0.4,0.8-1,1.6-1.3,2.1c-0.4,0.7-1.1,1.3-1.9,2
			c-1.6,1.4-4.4,1.8-6.1,1.2c-1.4-0.5-2.3-1.5-2.9-2.6c-0.6-1.1-0.8-2.4-0.7-2.7c0-0.1,0.2,0.2,0.3,0.4c0.1,0.1,0.1,0.2,0.3,0.4
			c0.2,0.3,0.6,0.6,0.9,0.6c0.4,0,0.6-0.1,0.7-0.2c0.2-0.1,0.3-0.1,0.5-0.5c0.2-0.3,0.5-0.8,0.5-1.3c0-0.1,0.1-0.4,0-0.6
			c0-0.4,0-1,0-1.5c0.1-0.7,0.4-1.3,0.5-1.4l0.3-0.5c0.4-0.7,2-2.2,4-2.1c0.4,0,0.9,0,1.4,0c0.7,0.1,1.3,0.1,2-0.3
			c0.4-0.2,0.6-0.6,0.8-0.9c0.4-0.7,0.6-1.4,0.7-1.8l0.1-0.3c0.1,0,0.1,0.1,0.1,0.2l0,0.3c0.1,0.5-0.1,1.3-0.3,2.1
			c-0.1,0.6-0.5,1.5-0.8,2c-0.6,0.9-1.3,1.5-1.7,1.9c-0.7,0.6-0.8,0.6-1,0.8l0,0c0,0,0,0.1,0,0.1c0,0.1,0.1,0.1,0.2,0.1l0,0
			c0.3-0.1,0.6-0.4,1.3-1c0.5-0.5,1.1-1,1.6-1.9c0.3-0.5,0.7-1.4,0.8-2c0.2-0.9,0.3-1.7,0.2-2.1l0-0.3c0-0.1,0-0.1,0-0.1l0,0
			c0.1-0.1,0.5,0.9,0.7,2.8C30.9,35.8,30.9,37.5,30.6,38.5"/>
		<path class="st0" d="M24,40.7l0.6-1.1l-0.8-0.9l1.2,0.2l0.6-1.1l0.2,1.2l1.2,0.3l-1.1,0.5l0.1,1.2l-0.9-0.9L24,40.7z"/>
		<path class="st2" d="M24,40.7l0.6-1.1l-0.8-0.9l1.2,0.2l0.6-1.1l0.2,1.2l1.2,0.3l-1.1,0.5l0.1,1.2l-0.9-0.9L24,40.7z"/>
		<path class="st1" d="M37.3,33.2c1.1,0.7,2.2,1.7,2.6,2.2c0.6,0.7,1.1,1.5,1.4,1.9c0.5,0.7,0.8,1.5,1.1,2.5c0.7,2,0,4.7-1.1,6.1
			c-1,1.1-2.2,1.6-3.5,1.8c-1.2,0.2-2.6-0.1-2.8-0.3c-0.1,0,0.3-0.1,0.4-0.1c0.2,0,0.2-0.1,0.5-0.1c0.3-0.1,0.8-0.3,0.9-0.6
			C37,46.2,37,46,37,45.8c0-0.2,0-0.3-0.2-0.6c-0.2-0.3-0.5-0.7-1-1c-0.1-0.1-0.3-0.2-0.5-0.3c-0.4-0.1-1-0.3-1.4-0.6
			c-0.6-0.4-1-0.8-1.1-1l-0.4-0.5c-0.5-0.7-1.3-2.7-0.5-4.5c0.2-0.4,0.3-0.9,0.5-1.3c0.3-0.6,0.5-1.2,0.5-1.9c0-0.4-0.3-0.8-0.6-1.1
			c-0.5-0.6-1.1-1.1-1.5-1.3l-0.3-0.2c0.1-0.1,0.1-0.1,0.2-0.1l0.3,0.1c0.5,0.1,1.2,0.6,1.9,1c0.5,0.4,1.2,1,1.5,1.5
			c0.6,0.9,0.9,1.8,1.1,2.3c0.3,0.8,0.3,0.9,0.4,1.2l0,0c0,0,0,0.1,0.1,0.1c0.1,0,0.2,0,0.2-0.1l0,0c0-0.3-0.2-0.7-0.5-1.6
			c-0.2-0.7-0.5-1.4-1.2-2.2c-0.4-0.5-1-1.2-1.5-1.5c-0.7-0.5-1.5-0.9-1.9-1l-0.3-0.1c0,0-0.1,0-0.1,0l0,0c-0.1-0.1,1.1-0.1,2.9,0.4
			C34.9,31.9,36.5,32.6,37.3,33.2"/>
		<path class="st0" d="M36.9,40.2l-0.8-1l-1.2,0.4l0.7-1.1l-0.8-1l1.2,0.3l0.7-1l0.1,1.2l1.2,0.3l-1.2,0.5L36.9,40.2z"/>
		<path class="st2" d="M36.9,40.2l-0.8-1l-1.2,0.4l0.7-1.1l-0.8-1l1.2,0.3l0.7-1l0.1,1.2l1.2,0.3l-1.2,0.5L36.9,40.2z"/>
		<g>
			<path class="st0" d="M28.4,22.8c0.2-0.7,0.9-0.6,0.7,0.2c-0.2,0.8-0.8,3-0.5,4.5c0.3,1.4,0.7,2.2,1.2,2.8c0.5,0.6,0,0.9-0.6,0.3
				c-0.6-0.7-1.2-2.1-1.3-3.1C27.6,25.6,27.9,24.3,28.4,22.8"/>
			<path class="st0" d="M21.6,30.3c-0.6-0.4-0.3-1,0.4-0.6c0.7,0.5,2.6,1.6,4.2,1.7c1.4,0.1,2.3-0.1,3-0.4c0.7-0.3,0.9,0.3,0.1,0.6
				c-0.9,0.4-2.4,0.6-3.3,0.5C24.1,31.8,22.9,31.2,21.6,30.3"/>
			<path class="st0" d="M26.8,38.7c-0.6,0.5-1.1,0-0.4-0.5c0.6-0.6,2.3-2.1,2.8-3.5c0.5-1.3,0.6-2.2,0.5-3c-0.1-0.8,0.5-0.8,0.6,0.1
				c0.1,1-0.1,2.4-0.5,3.3C29,36.6,28.1,37.6,26.8,38.7"/>
			<path class="st0" d="M36.1,37c0.2,0.7-0.4,1-0.7,0.2c-0.3-0.8-1-2.9-2.1-4c-1-1-1.8-1.4-2.6-1.6C30,31.4,30.2,30.8,31,31
				c0.9,0.3,2.2,1.1,2.8,1.7C35.1,34.1,35.6,35.4,36.1,37"/>
			<path class="st0" d="M37.3,26.9c0.7,0,0.9,0.7,0,0.7c-0.9,0.1-3.1,0.2-4.4,1c-1.2,0.7-1.9,1.4-2.3,2c-0.4,0.6-0.9,0.3-0.4-0.5
				c0.5-0.8,1.6-1.8,2.4-2.3C34.3,27.1,35.7,27,37.3,26.9"/>
		</g>
	</g>
</g>
</svg>
