<svg width="35" height="35" viewBox="0 0 35 35" fill="none" xmlns="http://www.w3.org/2000/svg">
<rect width="35" height="35" rx="5" fill="url(#paint0_linear_16_980)"/>
<g clip-path="url(#clip0_16_980)">
<path d="M6.25 16.25H16.25V6.25H6.25V16.25ZM7.5 7.5H15V15H7.5V7.5ZM28.75 6.25H18.75V16.25H28.75V6.25ZM27.5 15H20V7.5H27.5V15ZM6.25 28.75H16.25V18.75H6.25V28.75ZM7.5 20H15V27.5H7.5V20ZM8.75 26.25H13.75V21.25H8.75V26.25ZM10 22.5H12.5V25H10V22.5ZM8.75 13.75H13.75V8.75H8.75V13.75ZM10 10H12.5V12.5H10V10ZM26.25 8.75H21.25V13.75H26.25V8.75ZM25 12.5H22.5V10H25V12.5ZM26.25 26.25V22.5H28.75V18.75H25V21.25H22.5V18.75H18.75V22.5H21.25V25H18.75V28.75H22.5V26.25H26.25ZM26.25 20H27.5V21.25H26.25V20ZM20 21.25V20H21.25V21.25H20ZM22.5 22.5H25V25H22.5V22.5ZM21.25 27.5H20V26.25H21.25V27.5ZM3.75 11.25H2.5V5.625C2.5 3.9025 3.9025 2.5 5.625 2.5H11.25V3.75H5.625C4.59125 3.75 3.75 4.59125 3.75 5.625V11.25ZM5.625 31.25H11.25V32.5H5.625C3.9025 32.5 2.5 31.0975 2.5 29.375V23.75H3.75V29.375C3.75 30.4088 4.59125 31.25 5.625 31.25ZM31.25 23.75H32.5V29.375C32.5 31.0975 31.0975 32.5 29.375 32.5H23.75V31.25H29.375C30.4088 31.25 31.25 30.4088 31.25 29.375V23.75ZM32.5 5.625V11.25H31.25V5.625C31.25 4.59125 30.4088 3.75 29.375 3.75H23.75V2.5H29.375C31.0975 2.5 32.5 3.9025 32.5 5.625Z" fill="#414649"/>
</g>
<defs>
<linearGradient id="paint0_linear_16_980" x1="17.5" y1="0" x2="17.5" y2="35" gradientUnits="userSpaceOnUse">
<stop stop-color="#CDBB9D"/>
<stop offset="1" stop-color="#B9A179"/>
<stop offset="1" stop-color="#CDB690"/>
</linearGradient>
<clipPath id="clip0_16_980">
<rect width="30" height="30" fill="white" transform="translate(2.5 2.5)"/>
</clipPath>
</defs>
</svg>
